<svg xmlns="http://www.w3.org/2000/svg" width="74" height="75" fill="none"><g filter="url(#a)"><path fill="#000" fill-rule="evenodd" d="M37.08 6.167c-16.986 0-30.753 13.767-30.753 30.753 0 13.585 8.81 25.114 21.031 29.184 1.539.277 2.094-.67 2.094-1.483 0-.731-.025-2.667-.034-5.23-8.556 1.856-10.363-4.125-10.363-4.125-1.394-3.552-3.413-4.499-3.413-4.499-2.79-1.908.213-1.865.213-1.865 3.089.216 4.708 3.17 4.708 3.17 2.744 4.698 7.202 3.342 8.948 2.555.28-1.988 1.082-3.345 1.957-4.113-6.826-.774-14.004-3.413-14.004-15.2 0-3.352 1.2-6.102 3.157-8.248-.311-.78-1.375-3.91.306-8.14 0 0 2.58-.83 8.454 3.148a29.54 29.54 0 0 1 7.696-1.036c2.6.004 5.188.352 7.696 1.036 5.877-3.98 8.455-3.148 8.455-3.148 1.68 4.23.625 7.36.305 8.14 1.973 2.146 3.157 4.893 3.157 8.247 0 11.819-7.184 14.415-14.035 15.177 1.094.95 2.081 2.824 2.081 5.691 0 4.114-.037 7.431-.037 8.44 0 .823.549 1.779 2.118 1.477C59.033 62.02 67.833 50.501 67.833 36.92c0-16.986-13.767-30.753-30.753-30.753Z" clip-rule="evenodd"/></g><defs><filter id="a" width="82" height="82" x="-4" y="0" color-interpolation-filters="sRGB" filterUnits="userSpaceOnUse"><feFlood flood-opacity="0" result="BackgroundImageFix"/><feColorMatrix in="SourceAlpha" result="hardAlpha" values="0 0 0 0 0 0 0 0 0 0 0 0 0 0 0 0 0 0 127 0"/><feOffset dy="4"/><feGaussianBlur stdDeviation="2"/><feComposite in2="hardAlpha" operator="out"/><feColorMatrix values="0 0 0 0 0 0 0 0 0 0 0 0 0 0 0 0 0 0 0.25 0"/><feBlend in2="BackgroundImageFix" result="effect1_dropShadow_2_299"/><feBlend in="SourceGraphic" in2="effect1_dropShadow_2_299" result="shape"/></filter></defs></svg>